<svg width="224" height="104" viewBox="0 0 224 104" fill="none" xmlns="http://www.w3.org/2000/svg">
<path d="M163.727 3.50488C171.055 3.50512 176.995 9.44641 176.995 16.7744C176.995 24.1022 171.055 30.0427 163.727 30.043C156.399 30.043 150.458 24.1024 150.457 16.7744C150.457 9.44627 156.399 3.50488 163.727 3.50488Z" fill="white" stroke="#16056B" stroke-width="4.02084"/>
<path d="M176.933 30.6421C178.092 30.0867 179.649 29.6874 181.435 29.9585C183.322 30.2451 184.748 31.1707 185.705 32.0825C187.217 33.5253 188.027 35.3717 188.513 36.7935C188.73 36.4992 188.951 36.211 189.178 35.9331C190.3 34.5602 191.991 32.8493 194.325 31.895C197.112 30.7553 200.367 30.9118 203.154 32.8511C205.456 34.4536 206.788 36.8309 207.622 38.8306C209.293 42.8395 210.043 47.9014 210.543 52.3218C211.108 57.3162 211.346 61.259 211.898 65.3276C212.078 66.6526 212.269 67.7926 212.477 68.7524C215.15 68.037 218.104 68.9875 219.823 71.3628L220.023 71.6548C222.002 74.7042 221.261 78.8027 218.283 80.9575C216.23 82.4423 213.491 83.8857 210.282 83.8257C206.633 83.7573 203.977 81.812 202.34 79.6694C200.86 77.7309 200.03 75.4441 199.502 73.5308C198.949 71.5249 198.571 69.3255 198.279 67.1753C197.735 63.1639 197.326 57.7519 196.886 53.8667C196.766 52.8001 196.636 51.7976 196.5 50.8608C194.46 55.8135 192.643 62.2479 191.731 67.8833C191.761 68.9089 191.792 69.9664 191.818 71.0562C191.908 74.8501 188.906 77.9987 185.112 78.0894C181.319 78.1795 178.169 75.1787 178.078 71.3853V71.3843C178.047 70.0905 178.013 68.8442 177.976 67.646C177.687 58.29 177.216 51.8619 176.685 47.5259C176.027 48.0442 175.319 48.6895 174.608 49.4907C171.713 52.7523 168.057 59.3696 168.611 72.4731V72.4751C168.612 72.4975 168.613 72.5164 168.613 72.5298C168.613 72.5428 168.613 72.5527 168.613 72.5571C168.62 72.7012 168.627 72.8621 168.629 73.0259C168.635 73.4247 168.626 73.9365 168.558 74.4917C168.523 74.7739 168.465 75.1409 168.358 75.5532C168.255 75.9494 168.071 76.5276 167.732 77.1665C167.418 77.7571 166.865 78.5998 165.931 79.354L165.74 79.5034C164.602 80.3593 163.182 80.8803 161.656 80.9048C160.232 80.9274 159.104 80.5147 158.388 80.1548C157.674 79.7956 157.153 79.3827 156.83 79.0952C156.205 78.5401 155.794 77.9823 155.591 77.6919C155.16 77.0741 154.845 76.4554 154.664 76.0776H154.663C154.456 75.6483 154.276 75.2237 154.133 74.8618C154.005 74.5351 153.846 74.1029 153.723 73.6782C153.692 73.5691 153.637 73.3736 153.585 73.1362C153.559 73.0149 153.524 72.83 153.493 72.606C153.467 72.4242 153.41 71.9767 153.429 71.4067C153.439 71.1209 153.473 70.613 153.624 69.9995C153.729 69.5676 153.969 68.7626 154.539 67.8872C154.286 62.8265 154.266 57.8825 154.327 53.9185C154.367 51.2703 154.442 49.0298 154.507 47.4468C154.515 47.2562 154.525 47.075 154.533 46.9038L154.509 46.9028L154.626 44.9595V44.6724L154.658 44.5854C155.039 40.9516 158.218 38.2252 161.903 38.4468C163.096 38.5186 164.199 38.8942 165.143 39.4888C167.618 36.9097 170.114 35.2138 172.122 34.1294C172.693 33.8208 173.225 33.5631 173.706 33.3472C174.298 32.5636 175.271 31.5004 176.707 30.7544L176.933 30.6421Z" fill="white" stroke="#16056B" stroke-width="4.02084" stroke-linecap="round"/>
<path d="M45.392 2.02393C51.6449 2.22206 58.3327 4.64978 62.3145 11.622C64.7292 15.8504 64.5807 20.8387 63.6895 25.1263C62.7631 29.5829 60.8115 34.3748 58.2837 39.096C54.1539 46.8092 48.1449 54.9604 41.2681 62.0582C43.0306 63.7883 45.114 65.7888 47.1863 67.6702C49.3742 69.6567 51.3686 71.3433 52.8854 72.4526C53.2217 72.409 53.5664 72.3912 53.9168 72.4022C57.4591 72.5145 60.2554 75.4676 60.1432 79.0157C60.1029 80.2882 59.7028 82.7283 57.4659 84.5148C55.2855 86.2559 52.8867 86.1445 51.7568 85.9706C49.654 85.6467 47.7802 84.4905 46.7463 83.8158C44.2512 82.1873 41.2333 79.6123 38.5244 77.1528C37.176 75.9286 35.835 74.6682 34.5776 73.4635C34.5968 73.6645 34.6152 73.8637 34.6349 74.0604C34.963 77.3332 35.3414 79.7294 35.7261 81.1961L35.7251 81.1961C35.7281 81.2078 35.7317 81.2192 35.7347 81.2306C37.0458 82.4417 37.8525 84.1939 37.7957 86.1245C37.691 89.6726 34.7204 92.4493 31.1776 92.3449C27.2652 92.2295 25.3331 89.2553 24.7917 88.3273C24.0477 87.0516 23.589 85.6222 23.2784 84.4376C22.6324 81.9744 22.1791 78.7721 21.8344 75.3326C21.1355 68.3587 20.7774 59.2103 20.5815 50.2267C20.4009 41.9477 20.3549 33.6594 20.3204 27.1229C19.928 27.4951 19.5443 27.8639 19.1716 28.2267C17.5886 29.7677 16.2497 31.1509 15.3103 32.1455C14.8417 32.6416 14.4747 33.0397 14.228 33.3091C14.1018 33.4469 14.0095 33.5481 13.9517 33.612L13.8727 33.7004C11.5126 36.3434 7.45191 36.5795 4.79852 34.2328C3.06548 32.6997 1.80086 31.029 2.04057 29.0101C2.15248 28.0678 2.575 27.2968 2.99608 26.6974C3.40836 26.1105 3.93431 25.5339 4.39243 25.0269C6.25881 22.9612 8.20341 20.9753 10.1822 19.0489C13.5898 15.7316 18.3046 11.4758 22.9721 8.45622C24.667 7.35974 26.4898 6.33857 28.3498 5.58495C33.2126 3.61493 39.3816 1.83357 45.392 2.02393ZM44.986 14.8437C41.5431 14.7346 37.2975 15.8053 33.1959 17.4669C33.1666 17.4788 33.1368 17.4908 33.1069 17.5032C33.1403 19.5267 33.1593 22.2274 33.1761 25.3453C33.2127 32.1389 33.2493 41.0562 33.4434 49.95C33.4553 50.499 33.4699 51.0474 33.4831 51.5947C38.9515 45.6948 43.682 39.1288 46.9341 33.0551C49.1085 28.9939 50.4959 25.3881 51.0918 22.5212C51.7219 19.4898 51.2826 18.2262 51.1344 17.9666C49.9861 15.9558 48.1692 14.9446 44.986 14.8437Z" fill="white" stroke="#16056B" stroke-width="4.02084" stroke-linecap="round"/>
<path d="M77.9484 30.8251C81.0592 29.0901 84.9362 30.0298 86.9304 32.8926L87.1178 33.176L87.1308 33.197L87.1438 33.2189L87.2709 33.4339L87.2978 33.4788L87.3217 33.5245L87.4848 33.8354L87.494 33.8543L87.5041 33.8732C88.4613 35.7956 88.7903 38.041 88.9507 39.6259C89.1509 41.6031 89.196 43.8827 89.1207 46.2606C89.0139 49.6346 88.6511 53.4511 88.0248 57.2637C88.0267 57.3181 88.0297 57.3753 88.0321 57.4359C88.0526 57.9643 88.0859 58.7297 88.1396 59.6562C88.2478 61.5223 88.4327 63.9897 88.7376 66.4735C89.05 69.0179 89.4575 71.3088 89.9418 72.9367C90.0497 73.299 90.1477 73.5787 90.2286 73.786C92.5265 75.6486 93.4384 78.8607 92.2543 81.7379C90.8101 85.247 86.7954 86.9216 83.2857 85.4774C80.6828 84.4062 79.238 82.3391 78.5215 81.0998C78.2947 80.7075 78.0891 80.3036 77.9001 79.897C76.8233 80.7126 75.5791 81.413 74.1481 81.8749C70.7648 82.9668 67.3683 82.4125 64.3996 80.809C58.2744 77.5 55.2887 72.1515 54.0067 66.3683C52.7408 60.6568 53.1044 54.4086 53.7006 49.0072C53.8518 47.6368 53.9002 46.3667 54.0206 44.9186C54.1304 43.5972 54.3014 42.1435 54.7535 40.9339C55.225 39.6726 56.148 38.3238 57.92 37.9135C59.4953 37.5487 61.2245 38.0714 62.9951 38.9858C65.6287 40.3459 66.3533 43.1117 66.5613 45.5902C66.7708 48.0867 66.5128 51.2042 66.4095 54.0565C66.1928 60.0357 66.6184 65.4175 70.8851 68.6566C71.1151 68.1837 71.4109 67.453 71.7672 66.3494C72.3087 64.672 72.9467 62.2817 73.7124 58.916C73.9565 57.8432 74.1744 56.7428 74.3665 55.6333L74.3666 55.6304C74.3708 55.606 74.3748 55.5831 74.3785 55.5633C74.9584 52.1926 75.2921 48.7735 75.3854 45.8257C75.4479 43.852 75.3984 42.2107 75.277 41.0112L75.2303 40.6043C75.21 40.4453 75.1877 40.3097 75.169 40.1949C74.6811 39.5706 74.5036 38.8275 74.4393 38.3369C74.3263 37.4731 74.4262 36.5276 74.6415 35.6564C75.0499 34.0035 76.0741 31.8704 77.9484 30.8251Z" fill="white" stroke="#16056B" stroke-width="4.02084" stroke-linecap="round"/>
<path d="M111.355 31.827C113.103 31.6079 115.071 31.8395 116.94 32.8558C118.759 33.845 119.985 35.3044 120.786 36.7138C122.27 39.322 122.754 42.5462 122.883 45.6499C123.122 51.4343 123.027 56.583 122.906 60.9435C122.782 65.4395 122.645 68.7601 122.744 71.4104C122.775 72.2314 122.827 72.8702 122.886 73.3592C126.004 73.7811 128.524 76.3153 128.804 79.5809C129.128 83.3616 126.325 86.6895 122.544 87.0134C120.663 87.1745 118.543 87.0424 116.463 86.1799C114.414 85.3302 112.832 83.9482 111.699 82.2977L111.478 81.9643C109.474 78.8205 109.122 74.9029 109.011 71.9223C108.891 68.6892 109.054 64.6908 109.168 60.5632C109.255 57.436 109.322 54.0316 109.265 50.3433C107.186 53.2526 105.105 56.8261 103.464 60.2447C102.484 62.2863 101.765 64.0605 101.288 65.4666C100.799 66.9036 100.61 67.8221 100.585 68.2279C100.434 72.7819 100.437 75.6293 100.681 76.9727C101.358 80.7064 98.8799 84.2832 95.146 84.9607C91.4119 85.6378 87.8356 83.159 87.158 79.4258L87.1581 79.4248C86.5928 76.3081 86.7161 71.7608 86.8514 67.6963C87.0303 62.3213 87.3048 56.6079 87.0676 51.489C86.9501 48.9544 86.7128 46.789 86.3408 45.0653C85.9993 43.483 85.6232 42.6556 85.4111 42.306L85.3309 42.1852C83.0819 39.1284 83.7372 34.8264 86.7939 32.5773L87.0837 32.3754C90.1171 30.3722 94.2211 31.0794 96.3999 34.0403C97.8747 36.0449 98.7913 38.3672 99.3932 40.5924C100.864 38.6891 102.483 36.8573 104.181 35.3868L104.813 34.8597C106.383 33.5974 108.629 32.1687 111.355 31.827Z" fill="white" stroke="#16056B" stroke-width="4.02084" stroke-linecap="round"/>
<path d="M119.041 20.0024C124.572 14.1473 131.364 12.7924 137.96 14.1432C144.451 15.4724 150.746 19.4007 155.749 24.094C160.742 28.7786 164.674 34.4396 166.244 39.4915C167.029 42.015 167.285 44.586 166.571 46.8522C165.823 49.2263 164.087 51.0129 161.458 51.9566C158.843 52.8954 156.501 51.5829 155.137 49.9323C153.777 48.2879 152.968 45.8751 153.485 43.5633C154.369 39.605 153.989 36.6772 153.024 35.0513C152.566 34.2806 151.988 33.8093 151.313 33.5697C150.62 33.324 149.649 33.2612 148.33 33.6276C144.453 34.7048 141.3 37.7381 138.909 41.5375C137.145 44.3398 135.882 47.4289 135.102 50.1244C140.163 49.9059 144.581 51.258 148.514 53.9943C152.824 56.9919 156.45 61.5775 159.762 67.2827L160.42 68.4388L160.471 68.5294L160.512 68.6245C162.012 72.1087 164.513 78.2938 165.559 83.4293C166.065 85.9126 166.327 88.5704 165.628 90.5777C165.25 91.6638 164.54 92.6964 163.337 93.2887C162.229 93.8339 160.98 93.8646 159.73 93.6142C157.261 93.4567 155.706 91.7034 154.685 89.853C153.642 87.9615 152.843 85.4236 152.059 82.7976C150.437 77.3644 148.721 71.0232 145.095 65.7904C143.383 63.3186 141.228 61.9566 139.166 61.6309C137.301 61.3365 135.281 61.8496 133.399 63.546C133.375 63.6854 133.349 63.8441 133.318 64.0193C133.195 64.7245 133.017 65.7029 132.8 66.7963C132.371 68.9494 131.763 71.6684 131.083 73.6047C129.689 77.5777 125.768 85.4889 121.281 91.788C119.047 94.9246 116.56 97.8243 114.059 99.6131C111.607 101.367 108.443 102.484 105.588 100.426C102.525 98.219 101.832 93.9467 104.039 90.8844L104.17 90.7039L104.337 90.5557C116.48 79.7861 121.739 65.4089 125.01 49.3271C124.31 50.4881 123.176 51.2761 121.632 51.4742L121.361 51.5086L121.091 51.4698C118.08 51.0406 115.969 49.0951 114.668 46.6136C113.388 44.173 112.814 41.1053 112.785 37.9696C112.727 31.7482 114.815 24.4768 119.041 20.0024ZM132.646 28.1295C131.994 28.0207 130.707 28.1435 129.022 29.4353C127.455 30.6368 126.556 32.3866 126.053 33.9657C125.806 34.7415 125.668 35.4355 125.592 35.9306C125.555 36.1768 125.533 36.3705 125.521 36.496C125.515 36.5564 125.512 36.601 125.51 36.6276C125.47 37.9056 125.563 39.278 125.679 40.7092C125.792 42.0974 125.931 43.5899 125.936 44.9196C125.936 44.9375 125.935 44.9554 125.935 44.9733C127.214 39.4586 129.15 33.3259 132.646 28.1295Z" fill="white" stroke="#16056B" stroke-width="4.02084" stroke-linejoin="round"/>
</svg>
